<svg xmlns="http://www.w3.org/2000/svg" xmlns:rdf="http://www.w3.org/1999/02/22-rdf-syntax-ns#" xmlns:xlink="http://www.w3.org/1999/xlink">
 <defs>
  <symbol id="tag" viewBox="0 0 48 48">
   <path d="M28 4 4 28 20 44 44 20V4Zm7.94 4A4 4 0 0 1 36 8a4 4 0 0 1 4 4 4 4 0 0 1-4 4 4 4 0 0 1-4-4 4 4 0 0 1 3.94-4z" style="stroke-width:1px;stroke:#000">
   </path>
  </symbol>
  <symbol id="search" viewBox="0 0 12.7 12.7">
  <path d="M8.44 1.35C6.88 1.33 5.47 2.68 5.42 4.24 5.39 4.8 5.53 5.37 5.8 5.87 4.22 7.45 2.64 9.04 1.05 10.62 1.39 10.96 1.74 11.31 2.08 11.65 3.65 10.08 5.21 8.51 6.78 6.95 8.03 7.82 9.91 7.52 10.84 6.31 11.85 5.11 11.69 3.14 10.49 2.12 9.93 1.63 9.19 1.34 8.44 1.35Zm0.03 0.76C9.77 2.08 10.92 3.34 10.74 4.64 10.63 5.87 9.41 6.87 8.17 6.67 6.98 6.54 6.02 5.35 6.19 4.15 6.31 3.01 7.32 2.1 8.47 2.12Z" style="stroke-width:1px;">
  </path>
  </symbol>
<symbol id="calendar" viewBox="0 0 600 600">
   <path d="m100,50v75H50V225H550V125H500V50h-50v75H150V50Zm13,12h25v113h-25zm349,0h25V175H462ZM50,250V550H550V250Z" style="stroke-width:0">
   </path>
  </symbol>
 </defs> 
</svg>
