<svg width="106" height="106" viewBox="0 0 106 106" fill="none" xmlns="http://www.w3.org/2000/svg">
<circle cx="53" cy="53" r="53" fill="#CB413F"/>
<path d="M25.0172 75.5C25.0172 75.5 24.9785 66.9441 25.0172 67C25.0354 67.0263 35.3586 73.448 38.5172 67C42.0762 59.7347 38.5172 39.5 38.5172 39.5H30.0172V31H50.0172V67C49.1399 75.4665 42.7204 76.7793 25.0172 75.5Z" fill="#F2F0E1"/>
<path d="M52.4625 81.0641C52.4625 81.0641 53.8745 72.6254 53.9031 72.6871C53.9166 72.7161 63.0021 80.7944 67.2078 74.9751C71.9467 68.418 71.8686 47.8729 71.8686 47.8729L63.4916 46.4323L64.9322 38.0553L84.6428 41.4449L78.5415 76.9241C76.242 85.1195 69.6928 85.3253 52.4625 81.0641Z" fill="#F2F0E1"/>
</svg>
