<svg xmlns="http://www.w3.org/2000/svg" width="12.7" height="12.7" viewBox="0 0 12.7 12.7"><path d="m6.654 0c-0.523-0.024-0.624 1.074-0.64 1.731 -0.045 0.008-0.093 0.02-0.138 0.032 -0.272 0.065-0.559 0.158-0.859 0.28 -0.182-0.742-0.567-1.864-1.179-1.305 -0.304 0.28-0.847 1.812-0.648 2.334 -1.033 0.79-1.804 1.848-1.625 3.019 0.235 1.552 2.14 1.686 3.794 1.471 -0.45 0.523-0.815 1.289-0.924 2.33 -0.227 2.168 1.163 2.707 1.974 2.792 0.308 0.032 0.709 0.016 1.102-0.134 0.499 0.028 1.183-0.113 1.82-0.381 0.34-0.142 0.661-0.32 0.916-0.547s0.454-0.519 0.482-0.871c0.081-0.746-0.409-1.374-0.571-1.889 -0.081-0.259-0.097-0.458-0.012-0.648s0.3-0.413 0.798-0.648a0.304 0.304 0 0 0 0.146-0.405 0.304 0.304 0 0 0-0.276-0.174 0.304 0.304 0 0 0-0.13 0.028c-0.571 0.267-0.928 0.58-1.094 0.948s-0.122 0.75-0.016 1.082c0.211 0.665 0.592 1.248 0.547 1.645a0.304 0.304 0 0 0 0 0.012c-0.012 0.146-0.097 0.304-0.28 0.466s-0.45 0.316-0.746 0.442c-0.215 0.089-0.442 0.158-0.665 0.215 0.239-0.349 0.417-0.823 0.482-1.467 0.178-1.698-0.47-2.833-1.167-3.344 1.674-0.551 3.644-1.589 3.396-3.242 -0.219-1.451-1.735-2.067-3.259-2.168 -0.231-0.616-0.725-1.362-0.977-1.516 -0.097-0.057-0.182-0.085-0.259-0.089Zm-0.689 3.105a0.405 0.405 0 0 1 0.401 0.328 0.405 0.405 0 0 1-0.32 0.474 0.405 0.405 0 0 1-0.474-0.32 0.405 0.405 0 0 1 0.32-0.474 0.405 0.405 0 0 1 0.073-0.008Zm-1.99 0.385a0.405 0.405 0 0 1 0.401 0.328 0.405 0.405 0 0 1-0.32 0.474 0.405 0.405 0 0 1-0.474-0.32 0.405 0.405 0 0 1 0.32-0.474 0.405 0.405 0 0 1 0.073-0.008Z" fill="#b13e41"/></svg>

