<svg xmlns="http://www.w3.org/2000/svg">
 <symbol id="cat" viewBox="0 0 238.36 314.25">
 <path d="m126.69 0.45963c-12.9-0.6-15.4 26.5-15.8 42.7-1.1 0.2-2.3 0.5-3.4 0.8-6.7 1.6-13.8 3.9-21.2 6.9-4.5-18.3-14-46-29.1-32.2-7.5 6.9-20.9 44.7-16 57.6-25.5 19.5-44.5 45.6-40.1 74.5 5.8 38.3 52.8 41.6 93.6 36.3-11.1 12.9-20.1 31.8-22.8 57.5-5.6 53.5 28.7 66.8 48.7 68.9 7.6 0.8 17.5 0.4 27.2-3.3 12.3 0.7 29.2-2.8 44.9-9.4 8.4-3.5 16.3-7.9 22.6-13.5s11.2-12.8 11.9-21.5c2-18.4-10.1-33.9-14.1-46.6-2-6.4-2.4-11.3-0.3-16s7.4-10.2 19.7-16a7.5 7.5 0 0 0 3.6-10 7.5 7.5 0 0 0-6.8-4.3 7.5 7.5 0 0 0-3.2 0.7c-14.1 6.6-22.9 14.3-27 23.4s-3 18.5-0.4 26.7c5.2 16.4 14.6 30.8 13.5 40.6a7.5 7.5 0 0 0 0 0.3c-0.3 3.6-2.4 7.5-6.9 11.5s-11.1 7.8-18.4 10.9c-5.3 2.2-10.9 3.9-16.4 5.3 5.9-8.6 10.3-20.3 11.9-36.2 4.4-41.9-11.6-69.9-28.8-82.5 41.3-13.6 89.9-39.2 83.8-80-5.4-35.8-42.8-51-80.4-53.5-5.7-15.2-17.9-33.6-24.1-37.4-2.4-1.4-4.5-2.1-6.4-2.2zm-17 76.6a10 10 0 0 1 9.9 8.1 10 10 0 0 1-7.9 11.7 10 10 0 0 1-11.7-7.9 10 10 0 0 1 7.9-11.7 10 10 0 0 1 1.8-0.2zm-49.1 9.5a10 10 0 0 1 9.9 8.1 10 10 0 0 1-7.9 11.7 10 10 0 0 1-11.7-7.9 10 10 0 0 1 7.9-11.7 10 10 0 0 1 1.8-0.2z" style="image-rendering:auto;">
  </symbol>
 </path>
</svg>
